<?xml version="1.0" encoding="UTF-8" standalone="no"?>
<!DOCTYPE svg PUBLIC "-//W3C//DTD SVG 20010904//EN"
              "http://www.w3.org/TR/2001/REC-SVG-20010904/DTD/svg10.dtd">

<svg xmlns="http://www.w3.org/2000/svg"
     width="33.8714mm" height="33.8714mm"
     viewBox="0 0 128 128">
  <path fill="white" stroke="white" stroke-width="1"
        d="M 34.00,1.00
           C 34.00,1.00 60.00,13.00 60.00,13.00
             60.00,13.00 47.00,41.00 47.00,41.00
             47.00,41.00 43.00,30.00 43.00,30.00
             37.53,34.14 32.33,39.01 28.88,45.00
             28.88,45.00 23.28,57.01 23.28,57.01
             21.27,58.57 10.99,58.00 8.00,58.00
             8.00,54.50 7.84,51.42 8.78,48.00
             12.04,36.23 25.97,18.97 37.00,14.00
             37.00,14.00 34.00,1.00 34.00,1.00 Z
           M 51.00,2.00
           C 51.00,2.00 70.00,10.00 70.00,10.00
             70.00,10.00 61.00,29.00 61.00,29.00
             56.32,22.74 60.23,19.54 62.00,12.00
             55.79,10.23 51.58,8.96 51.00,2.00 Z
           M 72.00,30.00
           C 73.90,20.71 78.26,11.96 87.00,7.40
             91.29,5.16 94.30,5.00 99.00,5.00
             113.37,5.00 122.72,14.93 124.00,29.00
             124.00,29.00 109.00,30.00 109.00,30.00
             106.46,22.56 99.44,17.10 92.10,22.65
             88.79,25.16 88.15,28.25 85.61,29.43
             83.67,30.32 74.66,30.00 72.00,30.00 Z
           M 97.02,23.83
           C 109.10,24.51 107.79,38.15 98.99,38.88
             88.53,39.75 86.79,26.20 97.02,23.83 Z
           M 72.00,33.00
           C 75.12,33.00 84.07,32.42 86.37,33.99
             88.68,35.57 91.07,42.30 98.00,42.46
             104.68,42.62 107.42,35.50 109.63,33.99
             111.93,32.42 120.88,33.00 124.00,33.00
             121.57,59.89 91.73,63.98 79.33,50.82
             74.91,46.12 72.57,39.31 72.00,33.00 Z
           M 4.00,95.00
           C 6.43,68.11 36.27,64.02 48.67,77.18
             53.09,81.88 55.43,88.69 56.00,95.00
             52.88,95.00 43.93,95.58 41.63,94.01
             39.32,92.43 36.93,85.70 30.00,85.54
             23.32,85.38 20.58,92.50 18.37,94.01
             16.07,95.58 7.12,95.00 4.00,95.00 Z
           M 85.00,98.00
           C 90.47,93.86 95.67,88.99 99.12,83.00
             99.12,83.00 104.72,70.99 104.72,70.99
             106.73,69.43 117.01,70.00 120.00,70.00
             120.00,73.50 120.16,76.58 119.22,80.00
             115.96,91.77 102.03,109.03 91.00,114.00
             91.00,114.00 94.00,127.00 94.00,127.00
             94.00,127.00 68.00,115.00 68.00,115.00
             68.00,115.00 81.00,87.00 81.00,87.00
             81.00,87.00 85.00,98.00 85.00,98.00 Z
           M 26.21,89.74
           C 29.18,88.97 32.84,88.47 35.35,90.74
             38.98,94.01 38.34,101.06 33.79,103.39
             25.68,107.54 16.84,96.13 26.21,89.74 Z
           M 4.00,99.00
           C 4.00,99.00 19.00,98.00 19.00,98.00
             21.54,105.44 28.56,110.90 35.90,105.35
             39.21,102.84 39.85,99.75 42.39,98.57
             44.33,97.68 53.34,98.00 56.00,98.00
             54.10,107.29 49.74,116.04 41.00,120.60
             36.71,122.84 33.70,123.00 29.00,123.00
             14.63,123.00 5.28,113.07 4.00,99.00 Z
           M 67.00,99.00
           C 71.68,105.26 67.77,108.46 66.00,116.00
             72.21,117.77 76.42,119.04 77.00,126.00
             77.00,126.00 58.00,118.00 58.00,118.00
             58.00,118.00 67.00,99.00 67.00,99.00 Z" />
</svg>
